<svg xmlns="http://www.w3.org/2000/svg" viewBox="0 0 64 64">
  <defs>
    <linearGradient id="stratiqGrad" x1="0%" y1="0%" x2="100%" y2="100%">
      <stop offset="0%" stop-color="#38bdf8" />
      <stop offset="100%" stop-color="#eab308" />
    </linearGradient>
  </defs>
  <rect x="4" y="4" width="56" height="56" rx="16" ry="16" fill="#020617" />
  <path
    d="M20 24c2-6 7.5-10 16-10 6.5 0 10.5 2.2 12 3.2v7c-2.2-1.4-6-3.8-11-3.8-5.5 0-8.5 2.4-8.5 5 0 3.2 2.8 4.5 7.8 5.3 7.2 1.2 11.7 4.4 11.7 10.4C48 48.8 42 54 32 54c-7.3 0-12.1-2.7-14-4.1v-7.3c2.3 1.9 7 4.9 13.3 4.9 5.4 0 8.7-2.1 8.7-5.4 0-3.2-2.5-4.7-8-5.6-7.3-1.2-12-4.4-12-10.5 0-0.7 0.1-1.4 0.3-2.1Z"
    fill="url(#stratiqGrad)"
  />
</svg>

